<svg width="96" height="96" viewBox="0 0 96 96" fill="none" xmlns="http://www.w3.org/2000/svg">
<path fill-rule="evenodd" clip-rule="evenodd" d="M45.6842 21H19V74.3684H27.0053V29.0053H45.6842V21ZM27.0053 45.0158H39.0132V37.0106H27.0053V45.0158ZM59.0263 49.0184C53.8682 49.0184 49.6868 53.1998 49.6868 58.3579C49.6868 63.5159 53.8682 67.6974 59.0263 67.6974C64.1843 67.6974 68.3658 63.5159 68.3658 58.3579C68.3658 53.1998 64.1843 49.0184 59.0263 49.0184ZM41.6815 58.3579C41.6815 48.7787 49.4471 41.0132 59.0263 41.0132C61.7674 41.0132 64.36 41.649 66.6646 42.7813L65.7598 37.7142L73.6404 36.307L80.3114 73.6649L72.4308 75.0721L71.5828 70.3234C68.4238 73.6375 63.9662 75.7026 59.0263 75.7026C49.4471 75.7026 41.6815 67.9371 41.6815 58.3579Z" fill="white"/>
</svg>
